<svg xmlns="http://www.w3.org/2000/svg" xmlns:xlink="http://www.w3.org/1999/xlink" version="1.1" x="0px" y="0px" viewBox="0 0 100 125" enable-background="new 0 0 100 100" xml:space="preserve">
	<g><path fill="none" d="M26.393,51.057c2.687,1.977,5.699,3.978,9.012,5.955c-0.133-2.227-0.215-4.511-0.241-6.844   c-0.024-2.083-0.002-4.128,0.062-6.13C31.947,46.398,28.996,48.756,26.393,51.057z"/><path fill="none" d="M61.985,69.209c0.446-3.083,0.781-6.411,0.982-9.954c-1.654,1.129-3.367,2.247-5.136,3.346   c-1.758,1.092-3.507,2.127-5.241,3.104C55.869,67.087,59.013,68.252,61.985,69.209z"/><path fill="none" d="M37.286,60.027c0.318,3.818,0.786,7.38,1.375,10.644c3.204-1.313,6.61-2.909,10.163-4.796   c-1.814-0.818-3.649-1.692-5.497-2.623C41.244,62.203,39.228,61.125,37.286,60.027z"/><path fill="none" d="M38.014,30.791c-0.446,3.083-0.781,6.41-0.982,9.953c1.654-1.129,3.367-2.247,5.136-3.347   c1.758-1.092,3.507-2.127,5.241-3.104C44.131,32.912,40.987,31.748,38.014,30.791z"/><path fill="none" d="M62.714,39.973c-0.317-3.818-0.786-7.38-1.375-10.644c-3.204,1.313-6.611,2.909-10.163,4.796   c1.814,0.818,3.649,1.692,5.498,2.623C58.757,37.797,60.772,38.875,62.714,39.973z"/><path fill="none" d="M74.865,47.809c9.846-9.028,14.212-17.036,11.945-20.683c-2.27-3.654-11.411-3.278-23.899,1.576   c0.695,3.786,1.221,7.908,1.548,12.277C68.264,43.206,71.755,45.506,74.865,47.809z"/><path
		fill="none"
		d="M63.172,49.851c-0.031-2.725-0.137-5.353-0.308-7.878c-2.192-1.263-4.506-2.513-6.94-3.739   c-2.243-1.13-4.443-2.165-6.591-3.111c-2.055,1.134-4.153,2.362-6.286,3.687c-2.142,1.331-4.181,2.675-6.115,4.021   c-0.096,2.354-0.133,4.796-0.104,7.318c0.031,2.724,0.137,5.353,0.308,7.877c2.192,1.263,4.506,2.513,6.939,3.739   c2.243,1.13,4.443,2.165,6.591,3.111c2.055-1.134,4.153-2.362,6.286-3.687c2.142-1.331,4.181-2.675,6.115-4.021   C63.163,54.814,63.201,52.373,63.172,49.851z"/><path fill="none" d="M36.41,30.289c-13.488-4.089-23.125-3.738-25.118,0.219c-1.931,3.835,3.132,11.421,13.747,19.533   c3.03-2.695,6.476-5.423,10.269-8.1C35.502,37.824,35.878,33.915,36.41,30.289z"/><path fill="none" d="M38.977,72.334c2.617,13.14,7.213,21.051,11.515,21.002c4.43-0.05,8.982-8.552,11.238-22.465   c-3.501-1.119-7.187-2.504-10.982-4.145C46.683,68.934,42.724,70.812,38.977,72.334z"/><path
		fill="none"
		d="M74.961,49.959c-3.03,2.695-6.476,5.423-10.269,8.1c-0.194,4.117-0.57,8.026-1.102,11.653   c1.092,0.331,2.16,0.635,3.2,0.908c0.735-1.174,2.037-1.958,3.525-1.958c2.083,0,3.803,1.532,4.107,3.53   c7.675,1.087,12.882,0.09,14.287-2.701C90.639,65.656,85.575,58.07,74.961,49.959z"/><path fill="none" d="M73.607,48.942c-2.687-1.977-5.699-3.977-9.012-5.955c0.133,2.227,0.215,4.511,0.241,6.844   c0.024,2.083,0.002,4.128-0.062,6.13C68.053,53.601,71.004,51.244,73.607,48.942z"/><path
		fill="none"
		d="M25.135,52.19c-1.481,1.358-2.837,2.692-4.066,3.993c0.654,0.735,1.054,1.7,1.054,2.76   c0,2.298-1.863,4.16-4.16,4.16c-0.761,0-1.473-0.208-2.087-0.565c-3.049,4.507-4.025,8.182-2.687,10.335   c2.27,3.654,11.412,3.278,23.899-1.576c-0.695-3.786-1.221-7.907-1.548-12.276C31.736,56.793,28.245,54.494,25.135,52.19z"/><path
		fill="none"
		d="M61.022,27.666c-2.618-13.14-7.214-21.05-11.515-21.001c-1.778,0.02-3.575,1.402-5.236,3.948   c1.024,0.758,1.69,1.971,1.69,3.342c0,2.298-1.862,4.16-4.16,4.16c-0.31,0-0.612-0.037-0.903-0.101   c-1.044,3.146-1.943,6.881-2.629,11.115c3.501,1.119,7.187,2.504,10.982,4.145C53.317,31.065,57.276,29.187,61.022,27.666z"/><path
		d="M76.213,48.825c9.98-9.2,14.939-17.867,12.011-22.578c-2.933-4.719-12.93-4.101-25.632,0.796   C59.897,13.7,55.045,4.937,49.489,5c-2.464,0.028-4.75,1.788-6.74,4.907c-0.305-0.071-0.622-0.113-0.948-0.113   c-2.297,0-4.16,1.863-4.16,4.16c0,1.389,0.684,2.616,1.73,3.371c-1.095,3.264-2.009,7.075-2.703,11.305   c-13.704-4.126-24.283-3.993-26.862,1.129c-2.495,4.954,3.219,13.142,13.982,21.414c-1.465,1.351-2.821,2.69-4.061,4.006   c-0.536-0.252-1.132-0.397-1.764-0.397c-2.298,0-4.16,1.862-4.16,4.16c0,0.928,0.307,1.781,0.82,2.473   c-3.472,5.073-4.642,9.448-2.847,12.335c2.932,4.72,12.93,4.101,25.631-0.797C40.104,86.299,44.955,95.063,50.511,95   c5.733-0.065,10.503-9.509,12.821-23.632c0.975,0.294,1.934,0.566,2.876,0.816c-0.032,0.208-0.054,0.419-0.054,0.636   c0,2.297,1.862,4.16,4.16,4.16c1.937,0,3.559-1.326,4.023-3.118c8.157,1.134,14.026,0.014,15.857-3.623   C92.688,65.286,86.975,57.097,76.213,48.825z M86.81,27.126c2.267,3.647-2.099,11.655-11.945,20.683   c-3.11-2.303-6.601-4.603-10.406-6.831c-0.327-4.369-0.853-8.491-1.548-12.277C75.399,23.848,84.541,23.472,86.81,27.126z    M56.953,61.189c-2.133,1.326-4.232,2.553-6.286,3.687c-2.148-0.946-4.348-1.981-6.591-3.111c-2.433-1.225-4.747-2.476-6.939-3.739   c-0.171-2.525-0.277-5.153-0.308-7.877c-0.029-2.522,0.009-4.964,0.104-7.318c1.934-1.346,3.973-2.69,6.115-4.021   c2.133-1.325,4.232-2.553,6.286-3.687c2.148,0.946,4.348,1.981,6.591,3.111c2.433,1.225,4.747,2.476,6.94,3.739   c0.171,2.525,0.277,5.153,0.308,7.878c0.029,2.522-0.009,4.963-0.104,7.318C61.134,58.514,59.095,59.857,56.953,61.189z    M62.967,59.255c-0.2,3.543-0.536,6.871-0.982,9.954c-2.973-0.957-6.117-2.122-9.396-3.504c1.734-0.977,3.483-2.012,5.241-3.104   C59.6,61.502,61.313,60.384,62.967,59.255z M48.824,65.874c-3.552,1.887-6.958,3.484-10.163,4.796   c-0.589-3.264-1.057-6.826-1.375-10.644c1.941,1.098,3.957,2.176,6.041,3.225C45.175,64.183,47.01,65.056,48.824,65.874z    M35.164,50.168c0.026,2.332,0.108,4.617,0.241,6.844c-3.313-1.977-6.325-3.978-9.012-5.955c2.603-2.301,5.554-4.659,8.833-7.019   C35.163,46.04,35.141,48.085,35.164,50.168z M37.033,40.744c0.2-3.543,0.536-6.87,0.982-9.953c2.972,0.957,6.116,2.121,9.395,3.503   c-1.733,0.977-3.483,2.011-5.241,3.104C40.4,38.497,38.687,39.615,37.033,40.744z M51.176,34.125   c3.552-1.887,6.959-3.484,10.163-4.796c0.589,3.264,1.057,6.826,1.375,10.644c-1.941-1.098-3.957-2.176-6.04-3.225   C54.825,35.817,52.99,34.943,51.176,34.125z M64.836,49.832c-0.026-2.332-0.108-4.617-0.241-6.844   c3.313,1.977,6.325,3.977,9.012,5.955c-2.603,2.301-5.554,4.659-8.833,7.019C64.838,53.96,64.86,51.914,64.836,49.832z    M40.898,18.013c0.291,0.064,0.592,0.101,0.903,0.101c2.298,0,4.16-1.862,4.16-4.16c0-1.371-0.667-2.584-1.69-3.342   c1.661-2.546,3.459-3.928,5.236-3.948c4.301-0.049,8.898,7.862,11.515,21.001c-3.747,1.522-7.706,3.399-11.772,5.608   c-3.795-1.641-7.48-3.027-10.982-4.145C38.956,24.894,39.854,21.159,40.898,18.013z M11.292,30.508   c1.992-3.957,11.629-4.308,25.118-0.219c-0.533,3.626-0.908,7.535-1.102,11.652c-3.794,2.677-7.24,5.405-10.269,8.1   C14.425,41.929,9.361,34.343,11.292,30.508z M13.19,72.874c-1.338-2.153-0.362-5.828,2.687-10.335   c0.614,0.357,1.325,0.565,2.087,0.565c2.297,0,4.16-1.862,4.16-4.16c0-1.061-0.4-2.026-1.054-2.76   c1.229-1.3,2.585-2.635,4.066-3.993c3.11,2.303,6.601,4.603,10.406,6.831c0.327,4.369,0.853,8.49,1.548,12.276   C24.601,76.152,15.46,76.527,13.19,72.874z M50.492,93.336c-4.301,0.049-8.897-7.862-11.515-21.002   c3.747-1.522,7.705-3.399,11.771-5.608c3.795,1.641,7.481,3.027,10.982,4.145C59.475,84.784,54.923,93.286,50.492,93.336z    M88.708,69.491c-1.405,2.791-6.612,3.788-14.287,2.701c-0.304-1.998-2.024-3.53-4.107-3.53c-1.488,0-2.79,0.783-3.525,1.958   c-1.04-0.273-2.108-0.577-3.2-0.908c0.533-3.627,0.908-7.535,1.102-11.653c3.793-2.677,7.239-5.405,10.269-8.1   C85.575,58.07,90.639,65.656,88.708,69.491z"/></g>	
</svg>
